<svg width="24" height="24" viewBox="0 0 24 24" fill="none" xmlns="http://www.w3.org/2000/svg">
<path d="M21.8906 0H2.10938C0.946266 0 0 0.946266 0 2.10938V21.8906C0 23.0537 0.946266 24 2.10938 24H21.8906C23.0537 24 24 23.0537 24 21.8906V2.10938C24 0.946266 23.0537 0 21.8906 0ZM22.5938 21.8906C22.5938 22.2783 22.2783 22.5938 21.8906 22.5938H2.10938C1.72167 22.5938 1.40625 22.2783 1.40625 21.8906V7.03125H22.5938V21.8906ZM22.5938 5.625H1.40625V2.10938C1.40625 1.72167 1.72167 1.40625 2.10938 1.40625H21.8906C22.2783 1.40625 22.5938 1.72167 22.5938 2.10938V5.625Z" fill="black"/>
<path d="M4.5 2.8125H3.5625C3.17419 2.8125 2.85938 3.12731 2.85938 3.51562C2.85938 3.90394 3.17419 4.21875 3.5625 4.21875H4.5C4.88831 4.21875 5.20312 3.90394 5.20312 3.51562C5.20312 3.12731 4.88831 2.8125 4.5 2.8125Z" fill="black"/>
<path d="M8.25 2.8125H7.3125C6.92419 2.8125 6.60938 3.12731 6.60938 3.51562C6.60938 3.90394 6.92419 4.21875 7.3125 4.21875H8.25C8.63831 4.21875 8.95312 3.90394 8.95312 3.51562C8.95312 3.12731 8.63831 2.8125 8.25 2.8125Z" fill="black"/>
<path d="M12 2.8125H11.0625C10.6742 2.8125 10.3594 3.12731 10.3594 3.51562C10.3594 3.90394 10.6742 4.21875 11.0625 4.21875H12C12.3883 4.21875 12.7031 3.90394 12.7031 3.51562C12.7031 3.12731 12.3883 2.8125 12 2.8125Z" fill="black"/>
<path d="M7.53466 17.6719C7.56808 17.6776 8.72557 17.6748 9.25793 17.6719C9.51682 17.6704 9.72551 17.4594 9.72406 17.2005C9.7226 16.9425 9.51302 16.7344 9.25535 16.7344C9.25446 16.7344 9.25357 16.7344 9.25268 16.7344C8.84224 16.7367 8.40012 16.7343 8.08258 16.7344V12.5156C8.08258 12.2567 7.87268 12.0469 7.61383 12.0469C7.35499 12.0469 7.14508 12.2567 7.14508 12.5156V17.1992C7.14513 17.4275 7.30961 17.6333 7.53466 17.6719V17.6719Z" fill="black"/>
<path d="M2.87781 17.6719H4.47718C5.43137 17.6719 6.20767 16.89 6.20767 15.9358C6.20767 15.3533 5.91807 14.8375 5.47557 14.5237C5.67081 14.2647 5.78673 13.9428 5.78673 13.5942C5.78673 12.741 5.09256 12.0469 4.23939 12.0469H2.87781C2.61896 12.0469 2.40906 12.2567 2.40906 12.5156V17.2031C2.40906 17.3278 2.45875 17.4473 2.54706 17.5353C2.63495 17.6228 2.75387 17.6719 2.87781 17.6719V17.6719ZM3.34656 12.9844H4.23943C4.57571 12.9844 4.84928 13.2579 4.84928 13.5942C4.84928 13.9305 4.57571 14.2041 4.23943 14.2041C4.13917 14.2041 3.34656 14.2053 3.34656 14.2053V12.9844ZM3.34656 15.1444C3.4735 15.1439 4.47718 15.1429 4.47718 15.1429C4.91443 15.1429 5.27017 15.4986 5.27017 15.9359C5.27017 16.3731 4.91443 16.7288 4.47718 16.7288C4.27164 16.7288 3.74106 16.7308 3.34656 16.7324V15.1444Z" fill="black"/>
<path d="M19.0991 17.6719C20.5663 17.6719 21.591 16.5153 21.591 14.8594C21.591 14.6005 21.3811 14.3906 21.1223 14.3906H19.72C19.4612 14.3906 19.2513 14.6005 19.2513 14.8594C19.2513 15.1183 19.4612 15.3281 19.72 15.3281H20.613C20.4853 16.0516 20.0424 16.7344 19.0991 16.7344C18.0652 16.7344 17.2241 15.8932 17.2241 14.8594C17.2241 13.8255 18.0652 12.9844 19.0991 12.9844C19.4749 12.9844 19.8372 13.095 20.147 13.3043C20.3615 13.4492 20.653 13.3928 20.7979 13.1783C20.9428 12.9638 20.8864 12.6724 20.6719 12.5275C20.2064 12.213 19.6626 12.0469 19.0991 12.0469C17.5482 12.0469 16.2866 13.3086 16.2866 14.8594C16.2866 16.4102 17.5482 17.6719 19.0991 17.6719Z" fill="black"/>
<path d="M12.5366 17.6719C14.0874 17.6719 15.3491 16.4102 15.3491 14.8594C15.3491 13.3086 14.0874 12.0469 12.5366 12.0469C10.9858 12.0469 9.72406 13.3086 9.72406 14.8594C9.72406 16.4102 10.9858 17.6719 12.5366 17.6719ZM12.5366 12.9844C13.5704 12.9844 14.4116 13.8255 14.4116 14.8594C14.4116 15.8932 13.5704 16.7344 12.5366 16.7344C11.5027 16.7344 10.6616 15.8932 10.6616 14.8594C10.6616 13.8255 11.5027 12.9844 12.5366 12.9844Z" fill="black"/>
</svg>
