<svg width="50" height="50" viewBox="0 0 50 50" fill="none" xmlns="http://www.w3.org/2000/svg">
<path d="M46.4844 3.125H3.51562C2.79067 3.1258 2.09564 3.41414 1.58301 3.92676C1.07039 4.43939 0.782051 5.13442 0.78125 5.85938V37.1094C0.782051 37.8343 1.07039 38.5294 1.58301 39.042C2.09564 39.5546 2.79067 39.8429 3.51562 39.8438H19.2285L18.1865 42.9688H16.4062C16.199 42.9688 16.0003 43.0511 15.8538 43.1976C15.7073 43.3441 15.625 43.5428 15.625 43.75V45.3125H10.1562C9.94905 45.3125 9.75033 45.3948 9.60382 45.5413C9.45731 45.6878 9.375 45.8866 9.375 46.0938C9.375 46.3009 9.45731 46.4997 9.60382 46.6462C9.75033 46.7927 9.94905 46.875 10.1562 46.875H36.7187C36.9259 46.875 37.1247 46.7927 37.2712 46.6462C37.4177 46.4997 37.5 46.3009 37.5 46.0938C37.5 45.8866 37.4177 45.6878 37.2712 45.5413C37.1247 45.3948 36.9259 45.3125 36.7187 45.3125H34.375V43.75C34.375 43.5428 34.2927 43.3441 34.1462 43.1976C33.9997 43.0511 33.8009 42.9688 33.5937 42.9688H31.8135L30.7715 39.8438H46.4844C47.2093 39.8429 47.9044 39.5546 48.417 39.042C48.9296 38.5294 49.2179 37.8343 49.2187 37.1094V5.85938C49.2179 5.13442 48.9296 4.43939 48.417 3.92676C47.9044 3.41414 47.2093 3.1258 46.4844 3.125ZM32.8125 44.5312V45.3125H17.1875V44.5312H32.8125ZM19.834 42.9688L20.876 39.8438H29.124L30.166 42.9688H19.834ZM47.6562 37.1094C47.656 37.4201 47.5324 37.718 47.3127 37.9377C47.093 38.1574 46.7951 38.281 46.4844 38.2812H3.51562C3.2049 38.281 2.90698 38.1574 2.68727 37.9377C2.46756 37.718 2.34401 37.4201 2.34375 37.1094V35.9375H47.6562V37.1094ZM47.6562 34.375H2.34375V5.85938C2.34401 5.54865 2.46756 5.25073 2.68727 5.03102C2.90698 4.81131 3.2049 4.68776 3.51562 4.6875H46.4844C46.7951 4.68776 47.093 4.81131 47.3127 5.03102C47.5324 5.25073 47.656 5.54865 47.6562 5.85938V34.375Z" fill="white"/>
<path d="M39.8438 45.3125H39.0625C38.8553 45.3125 38.6566 45.3948 38.5101 45.5413C38.3636 45.6878 38.2813 45.8865 38.2813 46.0938C38.2813 46.301 38.3636 46.4997 38.5101 46.6462C38.6566 46.7927 38.8553 46.875 39.0625 46.875H39.8438C40.051 46.875 40.2497 46.7927 40.3962 46.6462C40.5427 46.4997 40.625 46.301 40.625 46.0938C40.625 45.8865 40.5427 45.6878 40.3962 45.5413C40.2497 45.3948 40.051 45.3125 39.8438 45.3125Z" fill="white"/>
<path d="M6.24942 23.4376C6.79323 23.4369 7.31991 23.2473 7.73949 22.9014C8.15907 22.5554 8.44552 22.0745 8.54991 21.5408L16.7539 16.0715C16.9746 16.4307 17.2881 16.7237 17.6614 16.9196C18.0347 17.1155 18.454 17.207 18.8749 17.1845C19.2959 17.162 19.703 17.0263 20.0533 16.7918C20.4036 16.5572 20.6841 16.2325 20.8652 15.8518L28.9805 18.5569C29.1146 19.0737 29.4211 19.5292 29.8494 19.848C30.2776 20.1669 30.8019 20.33 31.3354 20.3103C31.869 20.2906 32.3798 20.0894 32.7834 19.7399C33.187 19.3903 33.4592 18.9135 33.5549 18.3882L42.1948 11.9082C42.6075 12.2735 43.1359 12.4813 43.6869 12.4951C44.2379 12.5089 44.776 12.3278 45.2065 11.9837C45.637 11.6396 45.9322 11.1545 46.0401 10.6141C46.148 10.0736 46.0616 9.51239 45.7962 9.02935C45.5309 8.54632 45.1035 8.17246 44.5895 7.97367C44.0755 7.77488 43.5078 7.76392 42.9864 7.94271C42.4651 8.12151 42.0236 8.47858 41.7398 8.95101C41.456 9.42343 41.348 9.98088 41.435 10.5251L33.213 16.6915C32.9861 16.3422 32.6702 16.0597 32.2978 15.8732C31.9254 15.6866 31.51 15.6028 31.0944 15.6302C30.6788 15.6577 30.278 15.7954 29.9334 16.0294C29.5888 16.2633 29.3128 16.5849 29.1338 16.961L21.0186 14.2559C20.8851 13.7413 20.5808 13.2874 20.1554 12.9686C19.73 12.6498 19.2089 12.485 18.6775 12.5014C18.1462 12.5178 17.6362 12.7144 17.2313 13.0588C16.8264 13.4032 16.5506 13.8751 16.4491 14.3969L8.24493 19.8662C8.03085 19.5181 7.72945 19.232 7.37065 19.0363C7.01184 18.8406 6.60809 18.7421 6.19948 18.7506C5.79086 18.7592 5.39158 18.8744 5.04126 19.0849C4.69093 19.2954 4.40174 19.5939 4.20239 19.9507C4.00303 20.3074 3.90044 20.7102 3.9048 21.1188C3.90915 21.5275 4.0203 21.928 4.22721 22.2804C4.43412 22.6329 4.72961 22.9251 5.08434 23.1281C5.43907 23.3311 5.84071 23.4378 6.24942 23.4376ZM43.7494 9.37511C43.9039 9.37511 44.055 9.42093 44.1835 9.50678C44.3119 9.59262 44.4121 9.71464 44.4712 9.85739C44.5303 10.0001 44.5458 10.1572 44.5157 10.3088C44.4855 10.4603 44.4111 10.5995 44.3018 10.7088C44.1926 10.8181 44.0534 10.8925 43.9018 10.9226C43.7503 10.9527 43.5932 10.9373 43.4504 10.8781C43.3077 10.819 43.1857 10.7189 43.0998 10.5904C43.014 10.4619 42.9682 10.3109 42.9682 10.1564C42.9684 9.94923 43.0508 9.75066 43.1972 9.60419C43.3437 9.45773 43.5423 9.37535 43.7494 9.37511ZM31.2494 17.1876C31.4039 17.1876 31.555 17.2334 31.6835 17.3193C31.8119 17.4051 31.9121 17.5271 31.9712 17.6699C32.0303 17.8127 32.0458 17.9697 32.0157 18.1213C31.9855 18.2728 31.9111 18.412 31.8018 18.5213C31.6926 18.6306 31.5534 18.705 31.4018 18.7351C31.2503 18.7653 31.0932 18.7498 30.9504 18.6906C30.8077 18.6315 30.6857 18.5314 30.5998 18.4029C30.514 18.2744 30.4682 18.1234 30.4682 17.9689C30.4684 17.7617 30.5508 17.5632 30.6972 17.4167C30.8437 17.2702 31.0423 17.1878 31.2494 17.1876ZM18.7494 14.0626C18.9039 14.0626 19.055 14.1084 19.1835 14.1943C19.3119 14.2801 19.4121 14.4021 19.4712 14.5449C19.5303 14.6876 19.5458 14.8447 19.5157 14.9963C19.4855 15.1478 19.4111 15.287 19.3018 15.3963C19.1926 15.5056 19.0534 15.58 18.9018 15.6101C18.7503 15.6402 18.5932 15.6248 18.4504 15.5656C18.3077 15.5065 18.1857 15.4064 18.0998 15.2779C18.014 15.1494 17.9682 14.9984 17.9682 14.8439C17.9684 14.6367 18.0508 14.4382 18.1972 14.2917C18.3437 14.1452 18.5423 14.0628 18.7494 14.0626ZM6.24942 20.3126C6.40394 20.3126 6.55498 20.3584 6.68346 20.4443C6.81194 20.5301 6.91207 20.6521 6.9712 20.7949C7.03033 20.9377 7.0458 21.0947 7.01566 21.2463C6.98551 21.3978 6.91111 21.537 6.80185 21.6463C6.69259 21.7556 6.55338 21.83 6.40183 21.8601C6.25029 21.8903 6.0932 21.8748 5.95045 21.8156C5.80769 21.7565 5.68568 21.6564 5.59983 21.5279C5.51399 21.3994 5.46817 21.2484 5.46817 21.0939C5.4684 20.8867 5.55079 20.6882 5.69725 20.5417C5.84371 20.3952 6.04229 20.3128 6.24942 20.3126Z" fill="white"/>
<path d="M4.6875 32.0312H45.3125C45.5197 32.0312 45.7184 31.9489 45.8649 31.8024C46.0114 31.6559 46.0938 31.4572 46.0938 31.25C46.0938 31.0428 46.0114 30.8441 45.8649 30.6976C45.7184 30.5511 45.5197 30.4688 45.3125 30.4688H44.5312V14.0625C44.5312 13.8553 44.4489 13.6566 44.3024 13.5101C44.1559 13.3636 43.9572 13.2812 43.75 13.2812C43.5428 13.2812 43.3441 13.3636 43.1976 13.5101C43.0511 13.6566 42.9688 13.8553 42.9688 14.0625V30.4688H38.2812V25.7812C38.2812 25.574 38.1989 25.3753 38.0524 25.2288C37.9059 25.0823 37.7072 25 37.5 25C37.2928 25 37.0941 25.0823 36.9476 25.2288C36.8011 25.3753 36.7188 25.574 36.7188 25.7812V30.4688H32.0312V22.6562C32.0312 22.449 31.9489 22.2503 31.8024 22.1038C31.6559 21.9573 31.4572 21.875 31.25 21.875C31.0428 21.875 30.8441 21.9573 30.6976 22.1038C30.5511 22.2503 30.4688 22.449 30.4688 22.6562V30.4688H25.7812V25.7812C25.7812 25.574 25.6989 25.3753 25.5524 25.2288C25.4059 25.0823 25.2072 25 25 25C24.7928 25 24.5941 25.0823 24.4476 25.2288C24.3011 25.3753 24.2188 25.574 24.2188 25.7812V30.4688H19.5312V19.5312C19.5312 19.324 19.4489 19.1253 19.3024 18.9788C19.1559 18.8323 18.9572 18.75 18.75 18.75C18.5428 18.75 18.3441 18.8323 18.1976 18.9788C18.0511 19.1253 17.9688 19.324 17.9688 19.5312V30.4688H13.2812V25.7812C13.2812 25.574 13.1989 25.3753 13.0524 25.2288C12.9059 25.0823 12.7072 25 12.5 25C12.2928 25 12.0941 25.0823 11.9476 25.2288C11.8011 25.3753 11.7188 25.574 11.7188 25.7812V30.4688H7.03125V25.7812C7.03125 25.574 6.94894 25.3753 6.80243 25.2288C6.65591 25.0823 6.4572 25 6.25 25C6.0428 25 5.84409 25.0823 5.69757 25.2288C5.55106 25.3753 5.46875 25.574 5.46875 25.7812V30.4688H4.6875C4.4803 30.4688 4.28159 30.5511 4.13507 30.6976C3.98856 30.8441 3.90625 31.0428 3.90625 31.25C3.90625 31.4572 3.98856 31.6559 4.13507 31.8024C4.28159 31.9489 4.4803 32.0312 4.6875 32.0312Z" fill="white"/>
</svg>
