<svg width="24" height="24" viewBox="0 0 24 24" fill="none" xmlns="http://www.w3.org/2000/svg">
<g clip-path="url(#clip0)">
<path d="M22.4003 3.99975H8.20025L7.28025 0.956151C7.06247 0.247252 6.31468 -0.154291 5.60345 0.0557509L3.56625 0.655751C3.34183 0.722132 3.13834 0.845303 2.97545 1.01335L0.680252 3.39055C0.507669 3.57091 0.388576 3.79567 0.336252 4.03975C0.102252 5.11975 -0.543748 9.03495 0.988252 14.0998C2.52025 19.1646 5.22825 22.0902 6.02425 22.8658C6.20261 23.0408 6.4259 23.1632 6.66945 23.2194L9.90665 23.9662C10.0067 23.9893 10.1091 24.001 10.2119 24.001C10.3424 24.0009 10.4722 23.9821 10.5975 23.9454L11.7247 23.613L12.6331 23.345C12.9789 23.2453 13.2699 23.0104 13.4403 22.6934C13.61 22.3817 13.6473 22.0148 13.5439 21.6754L13.0371 19.9998H22.4003C23.2839 19.9998 24.0003 19.2834 24.0003 18.3998V5.59975C24.0003 4.7161 23.2839 3.99975 22.4003 3.99975V3.99975ZM16.1003 11.8798L23.1511 5.33335C23.1828 5.41863 23.1994 5.50877 23.2003 5.59975V18.3998C23.1991 18.4855 23.1841 18.5704 23.1559 18.6514L16.1003 11.8798ZM22.4003 4.79975C22.4456 4.80042 22.4909 4.80497 22.5355 4.81335L14.1603 12.587C13.8534 12.8715 13.3791 12.8715 13.0723 12.587L7.31225 7.25455L7.73665 7.12935C8.08182 7.02901 8.37222 6.79424 8.54265 6.47775C8.71217 6.16626 8.74922 5.79966 8.64545 5.46055L8.44425 4.79975H22.4003ZM6.29385 16.4922C5.46804 15.4812 4.854 14.3145 4.48825 13.0614C3.97163 11.4824 3.90117 9.79142 4.28465 8.17495C4.29291 8.15315 4.31127 8.13673 4.33385 8.13095L6.41665 7.51695L11.1143 11.8642L6.29385 16.4922ZM12.7339 22.3126C12.6645 22.4411 12.5463 22.5363 12.4059 22.5766L11.8755 22.733L10.9015 19.5098C10.8621 19.3705 10.7507 19.2634 10.61 19.2296C10.4694 19.1957 10.3214 19.2405 10.2231 19.3466C10.1248 19.4527 10.0914 19.6037 10.1359 19.7414L11.1103 22.9598L10.3719 23.1774C10.279 23.2049 10.1806 23.208 10.0863 23.1862L6.84905 22.4398C6.74874 22.4163 6.65683 22.3657 6.58345 22.2934C5.82345 21.5514 3.22865 18.7502 1.75385 13.8686C0.279052 8.98695 0.894252 5.23975 1.11785 4.20855C1.13936 4.10959 1.18781 4.0185 1.25785 3.94535L3.55065 1.56935C3.61679 1.5008 3.69943 1.45039 3.79065 1.42295L4.53505 1.20375L5.50905 4.42655C5.56001 4.59537 5.71551 4.71089 5.89185 4.71095C5.93104 4.71115 5.97002 4.70535 6.00745 4.69375C6.21882 4.62985 6.33842 4.40676 6.27465 4.19535L5.30385 0.977751L5.82945 0.822951C6.11979 0.735432 6.42646 0.897959 6.51705 1.18735L7.87705 5.69135C7.91881 5.82643 7.9044 5.97263 7.83705 6.09695C7.76749 6.22542 7.64935 6.32065 7.50905 6.36135L6.97825 6.51775L6.82105 5.99775C6.75312 5.79165 6.53326 5.67731 6.32552 5.74004C6.11778 5.80278 5.99795 6.01971 6.05545 6.22895L6.21105 6.74415L4.10785 7.36415C3.81951 7.44841 3.59479 7.67508 3.51305 7.96415C3.09112 9.72521 3.16379 11.5686 3.72305 13.291C4.21421 15.0392 5.17548 16.6191 6.50225 17.859C6.72786 18.0579 7.04032 18.126 7.32825 18.039L9.43665 17.4174L9.59385 17.9374C9.63318 18.0766 9.74461 18.1837 9.88527 18.2175C10.0259 18.2514 10.1739 18.2066 10.2722 18.1005C10.3705 17.9944 10.4039 17.8434 10.3595 17.7058L10.2039 17.1906L10.7291 17.0358C11.0194 16.9489 11.3257 17.1112 11.4171 17.4002L12.7771 21.9046C12.8191 22.0405 12.8043 22.1877 12.7359 22.3126H12.7339ZM12.7951 19.1998L12.1823 17.1714C11.9641 16.4611 11.2144 16.0593 10.5023 16.271L7.10225 17.2734C7.07783 17.2807 7.05139 17.2759 7.03105 17.2606C6.97505 17.2114 6.91105 17.1502 6.83705 17.0806L11.7027 12.4086L12.5283 13.173C13.1431 13.7399 14.0902 13.7399 14.7051 13.173L15.5131 12.4226L22.5559 19.1826C22.5047 19.1934 22.4526 19.1992 22.4003 19.1998H12.7951Z" fill="black"/>
<path d="M10.4 6.39986H16.8C17.0209 6.39986 17.2 6.22077 17.2 5.99985C17.2 5.77894 17.0209 5.59985 16.8 5.59985H10.4C10.1791 5.59985 10 5.77894 10 5.99985C10 6.22077 10.1791 6.39986 10.4 6.39986Z" fill="black"/>
<path d="M22 8.80005C21.7791 8.80005 21.6 8.97914 21.6 9.20005V14.8001C21.6 15.021 21.7791 15.2001 22 15.2001C22.2209 15.2001 22.4 15.021 22.4 14.8001V9.20005C22.4 8.97914 22.2209 8.80005 22 8.80005Z" fill="black"/>
</g>
<defs>
<clipPath id="clip0">
<rect width="24" height="24" fill="white"/>
</clipPath>
</defs>
</svg>
