<svg width="24" height="24" viewBox="0 0 24 24" fill="none" xmlns="http://www.w3.org/2000/svg">
<path d="M22.5703 9.38694L12.3316 1.89038C12.1342 1.74585 11.8659 1.74585 11.6686 1.89038L1.42981 9.38694C1.17972 9.57008 1.12538 9.92125 1.30852 10.1713C1.49165 10.4214 1.84286 10.4757 2.09291 10.2926L12.0001 3.03876L21.9072 10.2926C22.0071 10.3658 22.1232 10.401 22.2383 10.401C22.4111 10.401 22.5816 10.3215 22.6915 10.1713C22.8747 9.92125 22.8204 9.57008 22.5703 9.38694Z" fill="black" stroke="black" stroke-width="0.4"/>
<path d="M20.7303 10.9004C20.386 10.9004 20.1068 11.1796 20.1068 11.524V21.4497H15.1182V16.0316C15.1182 14.3122 13.7194 12.9135 12.0001 12.9135C10.2808 12.9135 8.88198 14.3123 8.88198 16.0316V21.4498H3.8934V11.524C3.8934 11.1796 3.61416 10.9004 3.26982 10.9004C2.92547 10.9004 2.64624 11.1796 2.64624 11.524V22.0734C2.64624 22.4178 2.92547 22.697 3.26982 22.697H9.50555C9.83349 22.697 10.1019 22.4436 10.1267 22.1219C10.1282 22.1074 10.1291 22.0914 10.1291 22.0734V16.0317C10.1291 15 10.9684 14.1607 12.0001 14.1607C13.0318 14.1607 13.8711 15 13.8711 16.0317V22.0734C13.8711 22.0913 13.872 22.107 13.8735 22.1214C13.8981 22.4433 14.1665 22.697 14.4946 22.697H20.7304C21.0748 22.697 21.354 22.4178 21.354 22.0734V11.524C21.3539 11.1796 21.0747 10.9004 20.7303 10.9004Z" fill="black" stroke="black" stroke-width="0.4"/>
</svg>
