<svg width="24" height="24" viewBox="0 0 24 24" fill="none" xmlns="http://www.w3.org/2000/svg">
<g clip-path="url(#clip0)">
<path d="M20.0989 21.2375V23.6C20.0989 23.8209 19.9199 24 19.699 24C19.4781 24 19.2991 23.8209 19.2991 23.6V21.2375C19.2991 19.398 17.8105 17.9093 15.9708 17.9094C15.1004 17.9094 14.3107 17.466 13.8582 16.7231C13.7433 16.5345 13.803 16.2884 13.9917 16.1735C14.1803 16.0586 14.4264 16.1184 14.5413 16.3071C14.8474 16.8095 15.3818 17.1095 15.9708 17.1095C18.2524 17.1094 20.0989 18.9558 20.0989 21.2375V21.2375ZM13.1196 17.2284C13.1666 17.4442 13.0298 17.6573 12.814 17.7043C11.7614 17.9336 10.6909 17.7041 9.83854 17.1223C8.99475 18.0265 7.88 17.9094 8.02923 17.9094C6.18972 17.9093 4.70102 19.3978 4.70102 21.2375V23.6C4.70102 23.8209 4.52194 24 4.30107 24C4.0802 24 3.90112 23.8209 3.90112 23.6V21.2375C3.90112 18.956 5.74733 17.1095 8.02913 17.1095C8.95211 17.1095 9.70036 16.3658 9.70036 15.4426V15.3373C7.95464 14.5025 6.7293 12.7484 6.65461 10.7057C5.93621 10.533 5.40093 9.89 5.40093 9.12495V7.05157C5.37908 6.0367 5.52976 3.49489 7.38307 1.70842C9.67151 -0.49759 13.3414 -0.357458 16.04 0.941621C16.303 1.06835 16.3429 1.42371 16.1245 1.60773C17.4916 1.94119 18.6704 2.78158 19.4278 3.98432C19.4669 4.04626 19.5385 4.1435 19.5198 4.29863C19.5082 4.39517 19.4794 4.47686 19.405 4.55235C18.9176 5.04668 18.6492 5.70175 18.6492 6.3969V9.12505C18.6492 9.34592 18.4701 9.52499 18.2492 9.52499C18.0284 9.52499 17.8493 9.34592 17.8493 9.12505V6.3969C17.8493 5.59516 18.1232 4.83416 18.6263 4.22284C17.8595 3.12618 16.6631 2.42088 15.3101 2.276L14.6072 2.20071C14.1961 2.15671 14.1155 1.59044 14.4975 1.43321L14.8172 1.30157C10.6534 -0.149985 6.20077 1.46285 6.20077 7.04722V9.12495C6.20077 9.4423 6.38355 9.71812 6.65071 9.85665V7.26384C6.65071 5.72014 7.90665 4.46421 9.45034 4.46421H14.5497C16.0934 4.46421 17.3493 5.72004 17.3493 7.26369V10.5384C17.3493 14.0167 13.9504 16.6586 10.4917 15.6404C10.4692 15.9258 10.3982 16.2011 10.2824 16.4571C10.9552 16.9191 11.8049 17.1055 12.6436 16.9227C12.8594 16.8757 13.0725 17.0126 13.1196 17.2284V17.2284ZM12 15.0574C14.5086 15.0574 16.5494 13.0166 16.5494 10.508V7.26369C16.5494 6.16114 15.6523 5.2641 14.5497 5.2641H9.45034C8.34769 5.2641 7.45061 6.16119 7.45061 7.26384V10.508C7.45061 13.0166 9.49144 15.0574 12 15.0574ZM16.0495 21.9503H14.8496C14.6288 21.9503 14.4497 22.1293 14.4497 22.3502C14.4497 22.5711 14.6288 22.7502 14.8496 22.7502H16.0495C16.2703 22.7502 16.4494 22.5711 16.4494 22.3502C16.4494 22.1293 16.2703 21.9503 16.0495 21.9503Z" fill="black" stroke="black" stroke-width="0.4"/>
</g>
<defs>
<clipPath id="clip0">
<rect width="24" height="24" fill="white"/>
</clipPath>
</defs>
</svg>
