<svg width="50" height="50" viewBox="0 0 50 50" fill="none" xmlns="http://www.w3.org/2000/svg">
<g clip-path="url(#clip0)">
<path d="M34.8184 7.12097C33.7145 7.12097 32.8164 6.22292 32.8164 5.11902C32.8164 4.01511 33.7145 3.11707 34.8184 3.11707C35.9223 3.11707 36.8203 4.01511 36.8203 5.11902C36.8203 6.22292 35.9222 7.12097 34.8184 7.12097ZM34.8184 4.58191C34.5222 4.58191 34.2812 4.82283 34.2812 5.11902C34.2812 5.41521 34.5222 5.65613 34.8184 5.65613C35.1146 5.65613 35.3555 5.41521 35.3555 5.11902C35.3555 4.82283 35.1145 4.58191 34.8184 4.58191Z" fill="#34495E"/>
<path d="M35.6653 0H14.3347C12.0037 0 10.1074 1.89629 10.1074 4.22725V7.87344C10.1074 8.27793 10.4354 8.60586 10.8398 8.60586C11.2443 8.60586 11.5723 8.27793 11.5723 7.87344V4.22725C11.5723 2.704 12.8114 1.46484 14.3347 1.46484H35.6654C37.1886 1.46484 38.4279 2.704 38.4279 4.22725V41.8457H11.5724V11.2914C11.5724 10.8869 11.2444 10.559 10.8399 10.559C10.4354 10.559 10.1075 10.8869 10.1075 11.2914V42.5781V45.7728C10.1075 48.1036 12.0038 50 14.3348 50H31.2063C31.6108 50 31.9387 49.6721 31.9387 49.2676C31.9387 48.8631 31.6108 48.5352 31.2063 48.5352H14.3347C12.8115 48.5352 11.5723 47.296 11.5723 45.7728V43.3105H38.4278V45.7728C38.4278 47.2959 37.1886 48.5352 35.6653 48.5352H34.624C34.2195 48.5352 33.8916 48.8631 33.8916 49.2676C33.8916 49.6721 34.2195 50 34.624 50H35.6653C37.9962 50 39.8926 48.1037 39.8926 45.7728V42.5781V4.22725C39.8926 1.89629 37.9963 0 35.6653 0V0Z" fill="#34495E"/>
<path d="M22.8027 45.2203C22.3982 45.2203 22.0703 45.5482 22.0703 45.9527C22.0703 46.3572 22.3982 46.6851 22.8027 46.6851H27.1973C27.6018 46.6851 27.9297 46.3572 27.9297 45.9527C27.9297 45.5482 27.6018 45.2203 27.1973 45.2203H22.8027Z" fill="#34495E"/>
<path d="M22.7051 17.7409H27.2949C27.9681 17.7409 28.5156 17.1934 28.5156 16.5202V11.9304C28.5156 11.2572 27.9681 10.7097 27.2949 10.7097H22.7051C22.0319 10.7097 21.4844 11.2572 21.4844 11.9304V16.5202C21.4844 17.1933 22.0319 17.7409 22.7051 17.7409ZM22.9492 12.1745H27.0508V16.2761H22.9492V12.1745Z" fill="#34495E"/>
<path d="M14.4004 17.7409H18.9902C19.6634 17.7409 20.2109 17.1934 20.2109 16.5202V11.9304C20.2109 11.2572 19.6634 10.7097 18.9902 10.7097H14.4004C13.7272 10.7097 13.1797 11.2572 13.1797 11.9304V16.5202C13.1797 17.1933 13.7273 17.7409 14.4004 17.7409ZM14.6445 12.1745H18.7461V16.2761H14.6445V12.1745Z" fill="#34495E"/>
<path d="M31.0098 17.7409H35.5996C36.2727 17.7409 36.8203 17.1934 36.8203 16.5202V11.9304C36.8203 11.2572 36.2727 10.7097 35.5996 10.7097H31.0098C30.3366 10.7097 29.7891 11.2572 29.7891 11.9304V16.5202C29.7891 17.1933 30.3366 17.7409 31.0098 17.7409ZM31.2539 12.1745H35.3555V16.2761H31.2539V12.1745Z" fill="#34495E"/>
<path d="M21.4844 25.6552C21.4844 26.3283 22.0319 26.8759 22.7051 26.8759H27.2949C27.9681 26.8759 28.5156 26.3283 28.5156 25.6552V21.0653C28.5156 20.3922 27.9681 19.8446 27.2949 19.8446H22.7051C22.0319 19.8446 21.4844 20.3922 21.4844 21.0653V25.6552ZM22.9492 21.3095H27.0508V25.411H22.9492V21.3095Z" fill="#34495E"/>
<path d="M13.1797 25.6552C13.1797 26.3283 13.7272 26.8759 14.4004 26.8759H18.9902C19.6634 26.8759 20.2109 26.3283 20.2109 25.6552V21.0653C20.2109 20.3922 19.6634 19.8446 18.9902 19.8446H14.4004C13.7272 19.8446 13.1797 20.3922 13.1797 21.0653V25.6552ZM14.6445 21.3095H18.7461V25.411H14.6445V21.3095Z" fill="#34495E"/>
<path d="M29.7891 25.6552C29.7891 26.3283 30.3366 26.8759 31.0098 26.8759H35.5996C36.2727 26.8759 36.8203 26.3283 36.8203 25.6552V21.0653C36.8203 20.3922 36.2727 19.8446 35.5996 19.8446H31.0098C30.3366 19.8446 29.7891 20.3922 29.7891 21.0653V25.6552ZM31.2539 21.3095H35.3555V25.411H31.2539V21.3095Z" fill="#34495E"/>
</g>
<defs>
<clipPath id="clip0">
<rect width="50" height="50" fill="white"/>
</clipPath>
</defs>
</svg>
