<svg width="50" height="50" viewBox="0 0 50 50" fill="none" xmlns="http://www.w3.org/2000/svg">
<path d="M3.12499 16.4062H1.56249V13.2812C1.56366 12.2456 1.97558 11.2527 2.70789 10.5204C3.4402 9.78805 4.4331 9.37613 5.46874 9.37496H32.0312V7.81246H30.4687C30.3142 7.81247 30.1632 7.76665 30.0347 7.68081C29.9062 7.59496 29.8061 7.47295 29.7469 7.33019C29.6878 7.18743 29.6723 7.03034 29.7025 6.87879C29.7326 6.72724 29.807 6.58803 29.9163 6.47877L34.6038 1.79128C34.6763 1.71873 34.7625 1.66118 34.8573 1.62191C34.9521 1.58265 35.0536 1.56244 35.1562 1.56244C35.2588 1.56244 35.3604 1.58265 35.4552 1.62191C35.55 1.66118 35.6361 1.71873 35.7087 1.79128L40.3962 6.47877C40.5055 6.58803 40.5799 6.72724 40.61 6.87879C40.6402 7.03034 40.6247 7.18743 40.5656 7.33019C40.5064 7.47295 40.4063 7.59496 40.2778 7.68081C40.1493 7.76665 39.9983 7.81247 39.8437 7.81246H38.2812V9.37496H41.4062C42.4419 9.37613 43.4348 9.78805 44.1671 10.5204C44.8994 11.2527 45.3113 12.2456 45.3125 13.2812V28.9062H43.75V13.2812C43.7493 12.6598 43.5021 12.0641 43.0627 11.6247C42.6233 11.1853 42.0276 10.9382 41.4062 10.9375H38.2812V25H36.7187V7.03122C36.7187 6.82401 36.8011 6.6253 36.9476 6.47879C37.0941 6.33228 37.2928 6.24997 37.5 6.24997H37.9577L35.1562 3.4485L32.3548 6.24997H32.8125C33.0197 6.24997 33.2184 6.33228 33.3649 6.47879C33.5114 6.6253 33.5937 6.82401 33.5937 7.03122V25.7812H32.0312V10.9375H5.46874C4.84736 10.9382 4.25164 11.1853 3.81226 11.6247C3.37288 12.0641 3.12572 12.6598 3.12499 13.2812V16.4062ZM5.46874 40.625H18.4811L16.6061 46.875H14.8437V48.4375H32.0312V46.875H30.2688L29.264 43.5253L27.7673 43.9746L28.6375 46.875H18.2371L20.1121 40.625H25.7812V39.0625H5.46874C4.84736 39.0617 4.25164 38.8146 3.81226 38.3752C3.37288 37.9358 3.12572 37.3401 3.12499 36.7187V35.9375H25V34.375H3.12499V17.9687H1.56249V36.7187C1.56366 37.7543 1.97558 38.7472 2.70789 39.4796C3.4402 40.2119 4.4331 40.6238 5.46874 40.625ZM28.9062 27.3437V14.8437H25.7812V32.8125H5.46874V31.25H8.59374V25C8.59374 24.7928 8.67605 24.594 8.82257 24.4475C8.96908 24.301 9.16779 24.2187 9.37499 24.2187H14.0625C14.2697 24.2187 14.4684 24.301 14.6149 24.4475C14.7614 24.594 14.8437 24.7928 14.8437 25V31.25H16.4062V19.5312C16.4062 19.324 16.4886 19.1253 16.6351 18.9788C16.7816 18.8323 16.9803 18.75 17.1875 18.75H21.875C22.0822 18.75 22.2809 18.8323 22.4274 18.9788C22.5739 19.1253 22.6562 19.324 22.6562 19.5312V31.25H24.2187V14.0625C24.2187 13.8553 24.3011 13.6565 24.4476 13.51C24.5941 13.3635 24.7928 13.2812 25 13.2812H29.6875C29.8947 13.2812 30.0934 13.3635 30.2399 13.51C30.3864 13.6565 30.4687 13.8553 30.4687 14.0625V27.3437H28.9062ZM13.2812 25.7812H10.1562V31.25H13.2812V25.7812ZM21.0937 20.3125H17.9687V31.25H21.0937V20.3125ZM5.46874 12.5V14.0625H7.03124V12.5H5.46874ZM10.1562 12.5H8.59374V14.0625H10.1562V12.5ZM11.7187 12.5V14.0625H13.2812V12.5H11.7187ZM47.7507 44.4368C48.1888 44.8772 48.4355 45.4725 48.4375 46.0937C48.4378 46.4016 48.3773 46.7065 48.2597 46.991C48.142 47.2754 47.9694 47.5339 47.7517 47.7516C47.534 47.9693 47.2755 48.1419 46.991 48.2596C46.7065 48.3773 46.4016 48.4377 46.0937 48.4375C45.4733 48.432 44.8792 48.1858 44.4368 47.7506L40.6973 44.0112C38.7302 45.1715 36.4075 45.5746 34.1646 45.1448C31.9216 44.715 29.9124 43.4819 28.5137 41.6765C27.1149 39.8712 26.4227 37.6177 26.5667 35.3385C26.7107 33.0593 27.6812 30.9109 29.296 29.296C30.9109 27.6811 33.0593 26.7107 35.3386 26.5667C37.6178 26.4226 39.8713 27.1149 41.6766 28.5136C43.4819 29.9124 44.715 31.9216 45.1448 34.1645C45.5746 36.4075 45.1716 38.7302 44.0112 40.6972L47.7507 44.4368ZM43.75 35.9375C43.75 34.3923 43.2918 32.8818 42.4334 31.5971C41.5749 30.3123 40.3548 29.311 38.9272 28.7196C37.4997 28.1283 35.9288 27.9736 34.4133 28.2751C32.8979 28.5765 31.5058 29.3206 30.4132 30.4132C29.3206 31.5058 28.5766 32.8978 28.2751 34.4133C27.9737 35.9288 28.1284 37.4996 28.7197 38.9272C29.311 40.3547 30.3123 41.5749 31.5971 42.4333C32.8819 43.2918 34.3923 43.75 35.9375 43.75C38.0088 43.7476 39.9945 42.9237 41.4592 41.4591C42.9238 39.9945 43.7476 38.0087 43.75 35.9375ZM46.6457 45.5417L43.0923 41.9881C42.7553 42.386 42.386 42.7553 41.9882 43.0922L45.5418 46.6457C45.6135 46.7212 45.6997 46.7817 45.7952 46.8234C45.8907 46.8652 45.9935 46.8874 46.0977 46.8887C46.2019 46.8901 46.3054 46.8706 46.4019 46.8313C46.4984 46.792 46.5861 46.7339 46.6598 46.6602C46.7335 46.5865 46.7917 46.4988 46.831 46.4022C46.8702 46.3057 46.8897 46.2023 46.8884 46.0981C46.887 45.9939 46.8648 45.891 46.8231 45.7955C46.7813 45.7 46.7209 45.6139 46.6453 45.5421L46.6457 45.5417ZM42.1875 35.9375C42.1875 37.1736 41.8209 38.382 41.1342 39.4098C40.4474 40.4376 39.4713 41.2387 38.3293 41.7117C37.1872 42.1847 35.9306 42.3085 34.7182 42.0674C33.5058 41.8262 32.3922 41.2309 31.5181 40.3569C30.644 39.4828 30.0487 38.3692 29.8076 37.1568C29.5664 35.9444 29.6902 34.6877 30.1632 33.5457C30.6363 32.4036 31.4374 31.4275 32.4652 30.7408C33.493 30.054 34.7014 29.6875 35.9375 29.6875C37.5945 29.6893 39.1832 30.3484 40.3549 31.5201C41.5266 32.6918 42.1856 34.2804 42.1875 35.9375ZM40.625 35.9375C40.625 35.0104 40.3501 34.1041 39.835 33.3332C39.3199 32.5624 38.5879 31.9616 37.7313 31.6068C36.8748 31.252 35.9323 31.1592 35.023 31.34C34.1137 31.5209 33.2785 31.9673 32.6229 32.6229C31.9674 33.2785 31.5209 34.1137 31.3401 35.023C31.1592 35.9323 31.252 36.8748 31.6068 37.7313C31.9616 38.5878 32.5624 39.3199 33.3333 39.835C34.1041 40.35 35.0104 40.625 35.9375 40.625C37.1803 40.6236 38.3718 40.1293 39.2505 39.2505C40.1293 38.3717 40.6236 37.1802 40.625 35.9375ZM32.8125 35.9375H34.375C34.3755 35.5232 34.5403 35.1261 34.8332 34.8331C35.1261 34.5402 35.5232 34.3754 35.9375 34.375V32.8125C35.109 32.8134 34.3147 33.1429 33.7288 33.7288C33.143 34.3146 32.8134 35.1089 32.8125 35.9375ZM42.9687 6.24997H44.5312C44.5299 5.00718 44.0356 3.8157 43.1568 2.93692C42.278 2.05814 41.0865 1.56384 39.8437 1.56247V3.12497C40.6723 3.1259 41.4666 3.45544 42.0524 4.04129C42.6383 4.62713 42.9678 5.42145 42.9687 6.24997Z" fill="#34495E"/>
</svg>
