<svg width="24" height="24" viewBox="0 0 24 24" fill="none" xmlns="http://www.w3.org/2000/svg">
<path d="M1.00012 0.000140625V22H3V24L3.99998 23.3333L4.99997 24V22H22.9998V0L1.00012 0.000140625ZM3.00014 20V2.00011H17.6666L17.6668 20H3.00014V20ZM20.9999 2.00002V6.66666H19.6666L19.6666 2.00002H20.9999ZM20.9999 8.66663V13.3333H19.6667L19.6667 8.66663H20.9999V8.66663ZM20.9999 20H19.6667V15.3333H20.9999V20Z" fill="black"/>
<path d="M6.3322 8.32701C6.28195 8.20274 6.21272 8.09226 6.12473 7.99579C6.03675 7.89937 5.93119 7.82118 5.80828 7.76104C5.68524 7.70104 5.55113 7.6709 5.40581 7.6709H4.12299V10.6473H4.94044V9.7334H5.42672C5.57203 9.7334 5.70553 9.70471 5.82703 9.64747C5.94863 9.59029 6.05198 9.51332 6.13725 9.41694C6.22247 9.32052 6.2888 9.21013 6.33638 9.08573C6.38386 8.96141 6.40758 8.83354 6.40758 8.70215C6.40767 8.57643 6.3825 8.45141 6.3322 8.32701ZM5.51264 8.95162C5.46933 8.99774 5.42259 9.0208 5.37225 9.0208H4.94044V8.38354H5.35125C5.40159 8.38354 5.45184 8.40594 5.50219 8.45066C5.55253 8.49538 5.57766 8.57924 5.57766 8.70215C5.57756 8.82243 5.55591 8.90554 5.51264 8.95162Z" fill="black"/>
<path d="M9.54953 8.61425C9.47828 8.43256 9.37699 8.27052 9.24569 8.12797C9.1142 7.98538 8.95642 7.87091 8.77197 7.78423C8.58752 7.69766 8.38211 7.6543 8.15575 7.6543C7.93497 7.6543 7.73167 7.6955 7.54577 7.77791C7.35991 7.86036 7.19922 7.97075 7.06375 8.10913C6.92814 8.24745 6.82267 8.40753 6.7472 8.58913C6.67174 8.77081 6.63409 8.95944 6.63409 9.155C6.63409 9.34789 6.67038 9.53511 6.74308 9.71675C6.81569 9.89849 6.91769 10.0598 7.04908 10.201C7.18042 10.3422 7.33834 10.456 7.52275 10.5426C7.7072 10.6293 7.9127 10.6726 8.13902 10.6726C8.35975 10.6726 8.563 10.6306 8.74886 10.5469C8.93472 10.463 9.09471 10.3519 9.22886 10.2136C9.36297 10.0753 9.46778 9.91592 9.54325 9.73564C9.61872 9.55536 9.65646 9.36749 9.65646 9.17183C9.65646 8.9817 9.62078 8.79594 9.54953 8.61425ZM8.7866 9.44427C8.75997 9.53933 8.71952 9.62384 8.66505 9.69791C8.61053 9.77197 8.53994 9.83206 8.45331 9.87809C8.36664 9.92422 8.26464 9.94728 8.14727 9.94728C8.02989 9.94728 7.9286 9.92492 7.84333 9.8802C7.75806 9.83549 7.68752 9.7768 7.6316 9.70405C7.57567 9.63139 7.53372 9.54833 7.50588 9.45467C7.47789 9.36106 7.46392 9.26394 7.46392 9.16334C7.46392 9.06556 7.47714 8.96989 7.50381 8.87614C7.5303 8.78263 7.57155 8.69872 7.62742 8.62466C7.6833 8.55064 7.75385 8.4912 7.83916 8.44644C7.92438 8.40177 8.02567 8.37936 8.14309 8.37936C8.2577 8.37936 8.35755 8.40102 8.44281 8.44438C8.52803 8.48769 8.59928 8.54497 8.65661 8.61627C8.7138 8.68752 8.75645 8.77002 8.78449 8.86358C8.81233 8.95723 8.82644 9.05431 8.82644 9.15491C8.82644 9.25288 8.81313 9.34925 8.7866 9.44427Z" fill="black"/>
<path d="M12.0082 9.55321C12.1424 9.45819 12.2472 9.33594 12.3227 9.18641C12.3982 9.03693 12.4358 8.87554 12.4358 8.70219C12.4358 8.57638 12.4107 8.45141 12.3604 8.32701C12.31 8.20274 12.2409 8.09226 12.1529 7.99579C12.0649 7.89937 11.9594 7.82118 11.8364 7.76104C11.7134 7.70104 11.5792 7.6709 11.434 7.6709H10.0674V10.6473H10.8848V9.7334H11.1908L11.7149 10.6473H12.6371L12.0082 9.55321ZM11.5408 8.93699C11.4975 8.99291 11.4507 9.02085 11.4004 9.02085H10.8848V8.38363H11.3794C11.4298 8.38363 11.48 8.41091 11.5304 8.46543C11.5807 8.51994 11.6058 8.59888 11.6058 8.70229C11.6058 8.80288 11.5841 8.88121 11.5408 8.93699Z" fill="black"/>
<path d="M12.704 7.6709V8.38359H13.5634V10.6473H14.3808V8.38359H15.2359V7.6709H12.704Z" fill="black"/>
<path d="M6.16453 12.0571V11.3445H4.12299V14.3209H4.94044V13.2141H5.93817V12.5517H4.94044V12.0571H6.16453Z" fill="black"/>
<path d="M9.26026 12.2878C9.18901 12.1061 9.08771 11.9441 8.95642 11.8016C8.82493 11.659 8.66715 11.5444 8.4826 11.4578C8.29815 11.3712 8.09274 11.3279 7.86638 11.3279C7.6456 11.3279 7.44231 11.3691 7.25645 11.4515C7.07059 11.5339 6.9099 11.6444 6.77443 11.7827C6.63882 11.921 6.53335 12.0811 6.45788 12.2627C6.38241 12.4444 6.34473 12.633 6.34473 12.8286C6.34473 13.0214 6.38101 13.2087 6.45371 13.3903C6.52632 13.5721 6.62832 13.7334 6.75971 13.8746C6.89105 14.0157 7.04898 14.1296 7.23338 14.2162C7.41784 14.3029 7.62334 14.3462 7.84965 14.3462C8.07038 14.3462 8.27363 14.3042 8.45949 14.2204C8.64535 14.1366 8.80543 14.0255 8.93949 13.8872C9.07365 13.7488 9.17842 13.5895 9.25388 13.4092C9.32935 13.2289 9.36709 13.0411 9.36709 12.8454C9.36723 12.6553 9.33156 12.4695 9.26026 12.2878ZM8.49732 13.1179C8.47074 13.2129 8.43024 13.2974 8.37578 13.3715C8.32126 13.4456 8.25067 13.5057 8.16404 13.5517C8.07737 13.5979 7.97537 13.6209 7.85799 13.6209C7.74057 13.6209 7.63932 13.5986 7.55406 13.5538C7.46879 13.5091 7.39824 13.4504 7.34232 13.3777C7.2864 13.305 7.24445 13.222 7.2166 13.1283C7.18862 13.0347 7.17465 12.9376 7.17465 12.837C7.17465 12.7392 7.18787 12.6435 7.21449 12.5498C7.24098 12.4563 7.28223 12.3724 7.3381 12.2983C7.39398 12.2243 7.46457 12.1648 7.54984 12.1201C7.63506 12.0754 7.73635 12.053 7.85377 12.053C7.96838 12.053 8.06823 12.0746 8.15349 12.118C8.23871 12.1613 8.30996 12.2186 8.36729 12.2899C8.42448 12.3611 8.46713 12.4436 8.49517 12.5372C8.52301 12.6309 8.53712 12.7279 8.53712 12.8285C8.53721 12.9264 8.52385 13.0228 8.49732 13.1179Z" fill="black"/>
<path d="M10.5955 13.6082V11.3445H9.77802V14.3209H11.9453V13.6082H10.5955Z" fill="black"/>
<path d="M13.1108 11.3447H12.2933V14.3211H13.1108V11.3447Z" fill="black"/>
<path d="M16.4369 12.2878C16.3657 12.1061 16.2643 11.9441 16.133 11.8016C16.0015 11.659 15.8437 11.5444 15.6593 11.4578C15.4748 11.3712 15.2694 11.3279 15.0431 11.3279C14.8223 11.3279 14.619 11.3691 14.4331 11.4515C14.2472 11.5339 14.0865 11.6443 13.9511 11.7827C13.8155 11.921 13.71 12.0811 13.6345 12.2627C13.559 12.4444 13.5214 12.633 13.5214 12.8286C13.5214 13.0215 13.5576 13.2087 13.6303 13.3903C13.703 13.5721 13.805 13.7334 13.9363 13.8746C14.0677 14.0157 14.2256 14.1296 14.41 14.2162C14.5945 14.3029 14.8 14.3462 15.0263 14.3462C15.2471 14.3462 15.4503 14.3042 15.6362 14.2204C15.822 14.1366 15.982 14.0255 16.1162 13.8872C16.2503 13.7488 16.3551 13.5895 16.4306 13.4092C16.506 13.2289 16.5438 13.0411 16.5438 12.8454C16.5439 12.6553 16.5082 12.4695 16.4369 12.2878ZM15.6741 13.1179C15.6475 13.2129 15.607 13.2974 15.5525 13.3715C15.498 13.4456 15.4274 13.5057 15.3408 13.5517C15.2541 13.5978 15.1521 13.6209 15.0348 13.6209C14.9174 13.6209 14.8161 13.5985 14.7308 13.5538C14.6456 13.5091 14.575 13.4504 14.5191 13.3776C14.4632 13.305 14.4213 13.2219 14.3934 13.1283C14.3654 13.0346 14.3515 12.9375 14.3515 12.8369C14.3515 12.7391 14.3647 12.6435 14.3914 12.5497C14.4178 12.4562 14.4591 12.3724 14.515 12.2982C14.5708 12.2242 14.6414 12.1648 14.7267 12.12C14.8119 12.0754 14.9132 12.0529 15.0306 12.0529C15.1453 12.0529 15.2451 12.0746 15.3304 12.118C15.4156 12.1613 15.4868 12.2186 15.5442 12.2899C15.6013 12.3611 15.644 12.4436 15.672 12.5372C15.6999 12.6308 15.714 12.7279 15.714 12.8285C15.7139 12.9264 15.7006 13.0228 15.6741 13.1179Z" fill="black"/>
</svg>
