<svg width="24" height="24" viewBox="0 0 24 24" fill="none" xmlns="http://www.w3.org/2000/svg">
<g clip-path="url(#clip0)">
<path d="M22.7654 9.21727L20.7008 9.0183C20.4817 8.13929 20.128 7.29936 19.6525 6.52817L20.9685 4.93946C21.0978 4.78357 21.0871 4.55511 20.944 4.41206L18.7109 2.17874C18.5678 2.03569 18.3394 2.02515 18.1835 2.15423L16.5936 3.47062C15.8211 2.99857 14.9821 2.64505 14.1046 2.42195L13.9055 0.354474C13.8861 0.153395 13.717 0 13.515 0H10.463C10.261 0 10.0921 0.153395 10.0727 0.354474L9.87336 2.42195C8.99589 2.64486 8.15691 2.99857 7.38439 3.47062L5.79452 2.15384C5.63883 2.02477 5.41037 2.0353 5.26712 2.17836L3.034 4.41186C2.89094 4.55511 2.88022 4.78357 3.00948 4.93946L4.32511 6.52798C3.84923 7.29917 3.49533 8.13929 3.27606 9.01849L1.2126 9.21765C1.01191 9.23719 0.859278 9.40628 0.860236 9.60794V12.7739C0.859087 12.9753 1.01172 13.1446 1.21241 13.1642L3.27835 13.3633C3.50107 14.2406 3.8544 15.0798 4.32626 15.8523L3.00929 17.442C2.87428 17.6049 2.89286 17.8457 3.05142 17.986L4.74527 19.4842C4.82896 19.5583 4.94042 19.5931 5.05168 19.5799C5.16275 19.5665 5.26291 19.5064 5.32687 19.4147L7.76127 15.9216C7.86985 15.7657 7.85108 15.5543 7.71665 15.4199C5.38107 13.0843 5.38087 9.29732 7.71665 6.96155C10.0524 4.62577 13.8394 4.62577 16.1752 6.96155C18.5109 9.29732 18.5109 13.0843 16.1752 15.4199C16.039 15.556 16.0218 15.7707 16.1344 15.9268L18.6544 19.4196C18.7191 19.5094 18.8189 19.5677 18.929 19.5799C19.0391 19.5922 19.1492 19.5573 19.2322 19.484L20.9266 17.9864C21.0851 17.8462 21.1039 17.6053 20.9687 17.4422L19.6521 15.8523C20.1242 15.0798 20.4777 14.2408 20.7006 13.3633L22.7654 13.1642C22.9661 13.1446 23.1187 12.9753 23.1176 12.7739V9.60755C23.1185 9.40609 22.9661 9.2368 22.7654 9.21727V9.21727ZM22.3332 12.4175L20.344 12.6094C20.1751 12.6257 20.0361 12.7492 19.9999 12.915C19.7837 13.8957 19.3905 14.8287 18.84 15.6686C18.7457 15.8127 18.7565 16.0013 18.8662 16.1336L20.1225 17.6501L19.0372 18.6096L16.9609 15.7317C19.3651 13.0795 19.2881 8.96506 16.7298 6.40676C14.092 3.76899 9.79983 3.76899 7.16205 6.40676C4.60241 8.9664 4.52677 13.0839 6.93454 15.7357L4.93505 18.6048L3.85536 17.6499L5.11143 16.1334C5.22116 16.0007 5.23169 15.8123 5.13747 15.6683C4.58671 14.8285 4.19336 13.8955 3.97658 12.915C3.94096 12.7494 3.80231 12.6258 3.63379 12.6094L1.64464 12.4175V9.96413L3.63379 9.77206C3.80346 9.75559 3.94287 9.6313 3.9783 9.4645C4.18934 8.48362 4.5825 7.55119 5.13709 6.71508C5.23246 6.57088 5.22212 6.38129 5.11181 6.24819L3.84118 4.71406L5.56931 2.98574L7.10345 4.25617C7.23597 4.3661 7.4246 4.37663 7.56842 4.28222C8.40817 3.73145 9.34117 3.3381 10.3217 3.12151C10.4877 3.08474 10.611 2.94533 10.6273 2.77623L10.8192 0.784591H13.1588L13.3509 2.77623C13.3672 2.94533 13.4905 3.08474 13.6563 3.12151C14.637 3.3381 15.57 3.73164 16.4098 4.28241C16.5536 4.37682 16.7422 4.36629 16.8747 4.25636L18.4087 2.98593L20.1368 4.71406L18.8664 6.24819C18.7563 6.38129 18.7461 6.57088 18.8415 6.71489C19.3963 7.55099 19.7894 8.48362 20.0007 9.4645C20.0355 9.63111 20.1745 9.75559 20.3438 9.77206L22.3332 9.96394V12.4175Z" fill="black" stroke="black" stroke-width="0.4"/>
<path d="M13.3566 18.0928V12.1376C14.3452 11.5667 14.9942 10.483 14.9942 9.36613C14.9942 7.84004 14.1215 6.72855 12.6598 6.39323C12.538 6.36527 12.4104 6.39686 12.3158 6.47825C12.2214 6.55983 12.1712 6.68144 12.1808 6.80592L12.3105 8.47028C11.983 8.64205 11.5923 8.64225 11.2647 8.47066L11.4041 6.79711C11.4148 6.66842 11.3616 6.54279 11.2616 6.46102C11.1616 6.37925 11.028 6.35186 10.9041 6.38786C9.56716 6.77508 8.73431 7.92487 8.73431 9.38892C8.73431 10.7327 9.43943 11.8197 10.616 12.2908V18.223C9.78261 18.715 8.97963 19.7133 8.99227 20.9835C8.99227 22.4972 9.85519 23.6161 11.298 23.9771C11.4205 24.0077 11.5502 23.9777 11.6467 23.8963C11.7432 23.8149 11.7947 23.6921 11.7852 23.5663L11.6561 21.9022C11.9834 21.7304 12.3742 21.7302 12.7019 21.9016L12.5625 23.5753C12.5517 23.704 12.605 23.8296 12.705 23.9114C12.8049 23.9932 12.9386 24.0206 13.0625 23.9846C14.3929 23.5991 15.2274 22.455 15.2408 20.9946C15.241 19.6507 14.5267 18.5639 13.3566 18.0928V18.0928ZM13.3986 22.988L13.5029 21.7338C13.5141 21.6004 13.4564 21.4705 13.3499 21.3893L13.3352 21.378C12.6446 20.8539 11.6879 20.8602 11.0044 21.3933C10.9018 21.4743 10.8462 21.6013 10.8564 21.7317L10.9565 23.0219C10.2014 22.6456 9.77916 21.9267 9.77916 20.9797C9.76901 19.9479 10.4956 19.1345 11.1771 18.8151C11.3144 18.7504 11.4016 18.6117 11.4006 18.4599V12.0129C11.4016 11.8404 11.2892 11.6877 11.1241 11.6374C10.1338 11.3384 9.52005 10.4769 9.52005 9.38854C9.52005 8.51202 9.90996 7.78737 10.5674 7.38407L10.4634 8.63822C10.4523 8.77189 10.5101 8.90193 10.617 8.98293L10.6315 8.99404C11.3211 9.51799 12.2769 9.51244 12.9602 8.98063C12.9637 8.97795 12.9675 8.97489 12.9708 8.97221C13.0684 8.89082 13.1205 8.76711 13.1107 8.64033L13.0093 7.33638C13.7795 7.69737 14.2102 8.41302 14.2102 9.36632C14.2102 10.2549 13.629 11.1515 12.7967 11.5468C12.6599 11.6117 12.5728 11.7496 12.5728 11.9011V18.3704C12.5728 18.5434 12.6862 18.6958 12.8516 18.7458C13.8421 19.0449 14.457 19.9065 14.457 20.9912C14.4486 21.8639 14.0554 22.586 13.3988 22.988H13.3986Z" fill="black" stroke="black" stroke-width="0.4"/>
</g>
<defs>
<clipPath id="clip0">
<rect width="24" height="24" rx="6" fill="white"/>
</clipPath>
</defs>
</svg>
