<svg width="26" height="26" viewBox="0 0 26 26" fill="none" xmlns="http://www.w3.org/2000/svg">
<path d="M7.16846 14.6998C5.41908 15.1672 4.20159 16.7509 4.19982 18.5613V18.6229C3.95948 18.675 3.75533 18.8325 3.64384 19.0516L3.04787 20.2329L1.71192 20.4225C1.39777 20.4651 1.13622 20.6848 1.03997 20.9868C0.942653 21.2847 1.02639 21.6119 1.25475 21.8266L2.21589 22.7423L1.9891 24.036C1.93414 24.3423 2.05925 24.653 2.31108 24.8359C2.56677 25.0258 2.90851 25.0529 3.19105 24.9059L4.38819 24.2904L5.58533 24.9059C5.86727 25.0524 6.20815 25.0252 6.46329 24.8359C6.7152 24.6531 6.84042 24.3424 6.78566 24.036L6.67366 23.3962H8.88875L8.84875 23.6117C8.77077 24.0498 8.94965 24.494 9.30954 24.7559C9.51937 24.9119 9.77399 24.9961 10.0355 24.9958C10.2295 24.9956 10.4207 24.9494 10.5935 24.861L13.0054 23.6381L15.4052 24.861C15.8184 25.0737 16.3167 25.0324 16.6892 24.7546C17.0485 24.4929 17.2272 24.0494 17.1496 23.6117L17.1096 23.3962H19.3255L19.2135 24.036C19.1587 24.3424 19.284 24.6531 19.5359 24.8359C19.7915 25.026 20.1333 25.0531 20.4158 24.9059L21.613 24.2904L22.8101 24.9059C23.0926 25.0531 23.4344 25.0259 23.6901 24.8359C23.9412 24.6526 24.0655 24.342 24.0101 24.036L23.7833 22.744L24.7452 21.8266C24.9736 21.6119 25.0573 21.2847 24.96 20.9868C24.8637 20.6845 24.6017 20.4648 24.2872 20.4225L22.9513 20.2329L22.3553 19.0516C22.2437 18.8324 22.0394 18.675 21.799 18.6229V18.5613C21.7972 16.7509 20.5797 15.1672 18.8303 14.6998L15.666 13.8556C15.3913 13.2631 15.2639 12.6131 15.2945 11.9608C15.6009 11.7029 15.8749 11.4569 16.0884 11.2582C16.4137 10.9552 16.5986 10.5309 16.5992 10.0865V9.74895C17.2324 9.5875 17.7029 9.05603 17.7862 8.40801C17.8696 7.76 17.5489 7.12679 16.9772 6.81042C17.2652 6.39765 17.4131 5.90342 17.3992 5.40037C17.3908 3.98858 16.4746 2.74258 15.1293 2.31349C15.1911 2.2537 15.2594 2.20096 15.3329 2.15633C15.469 2.08552 15.5527 1.94312 15.5481 1.78977C15.5436 1.63643 15.4518 1.49918 15.3117 1.43652C14.5797 1.13176 13.7921 0.983574 12.9994 1.00144C11.7481 0.983968 10.5793 1.62352 9.91953 2.68665C9.05598 3.12425 8.53665 4.0346 8.5996 5.00051C8.60539 5.62306 8.78553 6.23152 9.11956 6.75689C8.50882 7.04224 8.14322 7.68042 8.20601 8.35149C8.2688 9.02257 8.74648 9.58187 9.39953 9.74899V10.0865C9.40013 10.5309 9.58507 10.9552 9.91032 11.2582C10.1239 11.4582 10.3979 11.7029 10.7043 11.9609C10.7345 12.6131 10.6071 13.263 10.3331 13.8556L7.16846 14.6998ZM5.93054 22.2365C5.78346 22.3763 5.71622 22.5805 5.75134 22.7803L5.99573 24.1744L6.3901 24.1056L5.95014 24.1932L4.67021 23.5349C4.49267 23.4433 4.28178 23.4433 4.10424 23.5349L2.8243 24.1932L3.00708 24.5487L2.7775 24.1744L3.02228 22.7787C3.05696 22.5779 2.98842 22.3732 2.83989 22.2336L1.82474 21.2146L3.25588 21.0111C3.45551 20.9835 3.62888 20.8597 3.71986 20.68L4.38661 19.3971C4.4074 19.3971 4.41181 19.4067 4.41421 19.4115L5.05419 20.6796C5.14505 20.859 5.31787 20.9826 5.51699 21.0107L6.96612 21.2459L5.93054 22.2365ZM16.2132 24.116C16.0845 24.2131 15.9112 24.2271 15.7685 24.152L13.3686 22.9295C13.1366 22.8121 12.8626 22.8121 12.6306 22.9295L10.2308 24.152C10.0881 24.2275 9.91461 24.2135 9.786 24.116C9.67073 24.0351 9.61271 23.8947 9.63719 23.7561L10.0952 21.1671C10.1416 20.907 10.0532 20.6411 9.8604 20.4605L7.9197 18.6217C7.81376 18.5275 7.774 18.3792 7.81849 18.2446C7.86589 18.0985 7.99458 17.9938 8.14728 17.9771L10.8308 17.5992C11.0899 17.5636 11.3153 17.4037 11.4343 17.1709L12.6343 14.815C12.7077 14.6813 12.8481 14.5983 13.0006 14.5983C13.1532 14.5983 13.2936 14.6813 13.367 14.815L14.567 17.1709C14.6865 17.4034 14.9119 17.5632 15.1709 17.5992L17.8544 17.9771C18.0071 17.9938 18.1358 18.0986 18.1832 18.2446C18.2277 18.3793 18.1879 18.5275 18.082 18.6217L16.1405 20.4557C15.9478 20.6362 15.8594 20.9019 15.9057 21.1619L16.3637 23.7513C16.3882 23.8905 16.3295 24.0314 16.2133 24.112V24.116H16.2132ZM11.9214 14.4507C11.6336 14.3693 11.3594 14.2458 11.1079 14.0839C11.3155 13.6062 11.4422 13.0972 11.4827 12.5779C11.5315 12.6143 11.5782 12.6519 11.6271 12.6875C11.9024 12.889 12.2346 12.998 12.5758 12.9986H13.423C13.7641 12.9981 14.0962 12.8891 14.3713 12.6875C14.4205 12.6519 14.4673 12.6139 14.5161 12.5779C14.5565 13.0972 14.6831 13.6062 14.8909 14.0839C14.6393 14.2458 14.3651 14.3693 14.0773 14.4507C13.8673 14.0497 13.4521 13.7984 12.9994 13.7984C12.5467 13.7984 12.1314 14.0497 11.9214 14.4507V14.4507ZM21.639 19.4119L22.279 20.68C22.3699 20.8594 22.5427 20.983 22.7417 21.0112L24.1913 21.2463L23.1589 22.2333C23.0113 22.3733 22.9434 22.5779 22.9781 22.7784L23.2229 24.1724L23.6169 24.1036L23.1769 24.1912L21.897 23.533C21.7194 23.4414 21.5085 23.4414 21.331 23.533L20.0511 24.1912L20.2339 24.5467L20.0047 24.1724L20.2487 22.7791C20.2841 22.5788 20.2168 22.374 20.0695 22.2337L19.0519 21.2147L20.483 21.0111C20.682 20.9832 20.8547 20.8596 20.9454 20.6804L21.6122 19.3971C21.6334 19.3971 21.639 19.4071 21.639 19.4119V19.4119ZM15.4937 14.6382L18.6243 15.4736C20.0236 15.847 20.9975 17.1134 20.999 18.5613V18.8652C20.9478 18.9211 20.9045 18.9836 20.8702 19.0512L20.2742 20.2329L18.9379 20.4225C18.6236 20.4649 18.3618 20.6844 18.2651 20.9863C18.1682 21.2842 18.2519 21.6113 18.4799 21.8261L19.2891 22.5964H16.9692L16.6892 21.0367L18.6307 19.2028C18.9584 18.8971 19.0806 18.43 18.9447 18.003C18.8044 17.5639 18.4227 17.2455 17.9655 17.186L15.2792 16.8081L14.4457 15.1713C14.8215 15.0512 15.1753 14.8711 15.4937 14.6382V14.6382ZM10.3259 3.38048C10.4258 3.3462 10.5086 3.27453 10.5567 3.18054C11.0591 2.31046 11.9947 1.78214 12.9994 1.80127C13.4616 1.79705 13.9225 1.84984 14.3717 1.95843C14.2699 2.08654 14.1835 2.22611 14.1141 2.37434C14.0617 2.48655 14.0642 2.61675 14.1209 2.72688C14.1777 2.83701 14.2822 2.91459 14.4041 2.93702C14.4933 2.95383 16.5992 3.37131 16.5992 5.40044C16.6024 5.63353 16.5582 5.86481 16.4692 6.0803C16.2619 5.66435 15.8373 5.40119 15.3725 5.40044H14.1993C13.5495 5.43642 12.9027 5.28689 12.3346 4.96934C11.9309 4.72834 11.4696 4.60094 10.9995 4.60062C10.2983 4.60436 9.69175 5.08986 9.53476 5.77314C9.44709 5.5249 9.40142 5.26379 9.39957 5.00051C9.39957 3.72598 10.2915 3.39249 10.3259 3.38048V3.38048ZM10.4551 10.6728C10.2923 10.5212 10.1997 10.3089 10.1995 10.0865V9.39944C10.1995 9.17859 10.0205 8.99955 9.79958 8.99955C9.43807 9.00045 9.12113 8.75811 9.02732 8.40904C8.93351 8.05996 9.08629 7.69148 9.39957 7.51109V7.79983C9.39957 8.02068 9.57865 8.19972 9.79954 8.19972C10.0204 8.19972 10.1995 8.02068 10.1995 7.79983V6.60012C10.1995 6.55092 10.2159 5.40041 10.9995 5.40041C11.3419 5.40186 11.6771 5.4988 11.9674 5.68033C12.649 6.05664 13.4216 6.23663 14.1993 6.20019H15.3725C15.5461 6.1985 15.7033 6.30296 15.7688 6.46374C15.7869 6.50707 15.7972 6.5532 15.7992 6.60012V7.79983C15.7992 8.02068 15.9783 8.19972 16.1992 8.19972C16.4201 8.19972 16.5992 8.02068 16.5992 7.79983V7.51109C16.9124 7.69148 17.0652 8.05996 16.9714 8.40904C16.8776 8.75811 16.5607 9.00045 16.1992 8.99955C15.9783 8.99955 15.7992 9.17859 15.7992 9.39944V10.0865C15.799 10.3089 15.7064 10.5212 15.5436 10.6728C15.0242 11.1601 14.4766 11.6165 13.9037 12.0396C13.7647 12.1424 13.5966 12.1984 13.4237 12.1996H12.5758C12.4029 12.1983 12.2348 12.1423 12.0958 12.0396C11.5227 11.6164 10.9749 11.16 10.4551 10.6728V10.6728ZM11.5535 15.1713L10.7195 16.8069L8.03607 17.1848C7.57882 17.2443 7.1972 17.5627 7.0569 18.0019C6.92096 18.4288 7.0432 18.8959 7.37089 19.2016L9.30919 21.0208L9.02882 22.5964H6.70894L7.51969 21.825C7.74775 21.6102 7.83136 21.2831 7.73448 20.9852C7.63779 20.6832 7.37601 20.4638 7.0617 20.4213L5.72575 20.2318L5.12938 19.05C5.09478 18.9829 5.05116 18.9207 4.99979 18.8653V18.5614C5.00101 17.113 5.97522 15.8462 7.37486 15.4729L10.5051 14.6382C10.8236 14.8711 11.1776 15.0512 11.5535 15.1713V15.1713Z" fill="black" stroke="black" stroke-width="0.4"/>
</svg>
