<svg width="38" height="38" viewBox="0 0 38 38" fill="none" xmlns="http://www.w3.org/2000/svg">
<path d="M34.1354 37.9189H3.86508C2.86191 37.9178 1.90016 37.5187 1.19081 36.8094C0.481459 36.1 0.0824433 35.1383 0.0812988 34.1351V3.86484C0.0824433 2.86167 0.481459 1.89991 1.19081 1.19056C1.90016 0.481214 2.86191 0.0821992 3.86508 0.0810547H34.1354C35.1385 0.0821992 36.1003 0.481214 36.8096 1.19056C37.519 1.89991 37.918 2.86167 37.9191 3.86484V34.1351C37.918 35.1383 37.519 36.1 36.8096 36.8094C36.1003 37.5187 35.1385 37.9178 34.1354 37.9189ZM3.86508 1.16214C3.14855 1.16299 2.4616 1.44802 1.95493 1.95469C1.44826 2.46136 1.16324 3.1483 1.16238 3.86484V34.1351C1.16324 34.8517 1.44826 35.5386 1.95493 36.0453C2.4616 36.5519 3.14855 36.837 3.86508 36.8378H34.1354C34.8519 36.837 35.5388 36.5519 36.0455 36.0453C36.5522 35.5386 36.8372 34.8517 36.8381 34.1351V3.86484C36.8372 3.1483 36.5522 2.46136 36.0455 1.95469C35.5388 1.44802 34.8519 1.16299 34.1354 1.16214H3.86508Z" fill="#1473E6"/>
<path d="M32.5135 12.8458H31.4324V6.56741H25.154V5.48633H31.9729C32.1163 5.48633 32.2538 5.54328 32.3551 5.64465C32.4565 5.74602 32.5135 5.88351 32.5135 6.02687V12.8458Z" fill="#1473E6"/>
<path d="M21.8577 15.3755L31.586 5.64717L32.3503 6.4115L22.622 16.1398L21.8577 15.3755Z" fill="#1473E6"/>
<path d="M6.56796 12.8458H5.48688V6.02687C5.48688 5.88351 5.54383 5.74602 5.6452 5.64465C5.74657 5.54328 5.88406 5.48633 6.02742 5.48633H12.8463V6.56741H6.56796V12.8458Z" fill="#1473E6"/>
<path d="M5.64307 6.40991L6.40739 5.64559L16.1357 15.3739L15.3714 16.1382L5.64307 6.40991Z" fill="#1473E6"/>
<path d="M31.9729 32.5135H25.154V31.4324H31.4324V25.1541H32.5135V31.973C32.5135 32.1163 32.4565 32.2538 32.3551 32.3552C32.2538 32.4566 32.1163 32.5135 31.9729 32.5135Z" fill="#1473E6"/>
<path d="M21.8558 22.626L22.6202 21.8617L32.3485 31.59L31.5841 32.3543L21.8558 22.626Z" fill="#1473E6"/>
<path d="M12.8463 32.5135H6.02742C5.88406 32.5135 5.74657 32.4566 5.6452 32.3552C5.54383 32.2538 5.48688 32.1163 5.48688 31.973V25.1541H6.56796V31.4324H12.8463V32.5135Z" fill="#1473E6"/>
<path d="M5.64148 31.5886L15.3698 21.8603L16.1341 22.6246L6.4058 32.3529L5.64148 31.5886Z" fill="#1473E6"/>
</svg>
