<svg width="20" height="20" viewBox="0 0 20 20" fill="none" xmlns="http://www.w3.org/2000/svg">
<g clip-path="url(#clip0)">
<path d="M13.6283 19.3083C13.645 19.3033 13.6608 19.2967 13.6775 19.2908C23.8567 15.2467 21.0408 0 10 0C4.45917 0 0 4.51667 0 10C0 16.9392 7.02833 21.8908 13.6283 19.3083ZM4.40083 16.7158C5.11083 15.5225 7.40833 12.1558 11.33 10.9942C12.15 13.085 12.725 15.5242 12.7817 18.29C9.81 19.2892 6.67583 18.6167 4.40083 16.7158ZM14.0108 17.7683C13.9017 15.1108 13.3592 12.7542 12.5858 10.7125C14.3208 10.4417 16.3292 10.6225 18.6067 11.535C18.1225 14.2525 16.385 16.5367 14.0108 17.7683ZM18.7375 10.2425C16.2292 9.3 14.0183 9.1825 12.105 9.5475C11.8092 8.88083 11.4983 8.24 11.1692 7.65C14.105 6.4775 15.84 5.04833 16.6167 4.29167C17.9875 5.87833 18.8017 7.9325 18.7375 10.2425ZM15.7292 3.40167C15.0225 4.07417 13.3583 5.4325 10.5125 6.54333C9.1175 4.33667 7.62583 2.78 6.68083 1.90833C9.70417 0.663333 13.1908 1.195 15.7292 3.40167ZM5.48583 2.51917C6.19917 3.14667 7.765 4.65333 9.27583 6.98333C7.20083 7.65167 4.59917 8.1425 1.435 8.21167C1.93833 5.8 3.44167 3.75667 5.48583 2.51917ZM1.27667 9.46667C4.81833 9.40917 7.685 8.85 9.95083 8.09333C10.2642 8.6425 10.5617 9.24083 10.8475 9.8625C6.90167 11.1192 4.43583 14.3633 3.49167 15.8283C1.96833 14.1283 1.12833 11.91 1.27667 9.46667Z" fill="#7E7E7E"/>
</g>
<defs>
<clipPath id="clip0">
<rect width="20" height="20" fill="white"/>
</clipPath>
</defs>
</svg>
