<svg width="20" height="20" viewBox="0 0 20 20" fill="none" xmlns="http://www.w3.org/2000/svg">
<g clip-path="url(#clip0)">
<path d="M11.3503 19.9609H8.14121C7.60519 19.9609 7.16916 19.5258 7.16916 18.9908V11.7667H5.29691C4.76089 11.7667 4.32486 11.3313 4.32486 10.7965V7.70096C4.32486 7.16599 4.76089 6.73081 5.29691 6.73081H7.16916V5.18067C7.16916 3.64365 7.65274 2.33597 8.56746 1.39923C9.48631 0.458222 10.7704 -0.0390625 12.2809 -0.0390625L14.7283 -0.0350952C15.2634 -0.0341797 15.6987 0.401001 15.6987 0.935059V3.8092C15.6987 4.34418 15.2628 4.77936 14.7269 4.77936L13.0791 4.77997C12.5766 4.77997 12.4486 4.88052 12.4213 4.91135C12.3762 4.96246 12.3225 5.10697 12.3225 5.50598V6.73065H14.6031C14.7748 6.73065 14.9411 6.77292 15.0841 6.85257C15.3925 7.02454 15.5842 7.3497 15.5842 7.70111L15.583 10.7967C15.583 11.3313 15.1469 11.7665 14.6109 11.7665H12.3225V18.9908C12.3225 19.5258 11.8863 19.9609 11.3503 19.9609ZM8.34394 18.7885H11.1476V11.2418C11.1476 10.8846 11.4388 10.594 11.7966 10.594H14.4082L14.4093 7.90329H11.7964C11.4387 7.90329 11.1476 7.61276 11.1476 7.25556V5.50598C11.1476 5.04791 11.1942 4.52698 11.5406 4.13544C11.9592 3.66211 12.619 3.60748 13.0788 3.60748L14.5239 3.60687V1.13709L12.28 1.13342C9.85247 1.13342 8.34394 2.68433 8.34394 5.18067V7.25556C8.34394 7.61261 8.05284 7.90329 7.69509 7.90329H5.49964V10.594H7.69509C8.05284 10.594 8.34394 10.8846 8.34394 11.2418V18.7885ZM14.726 1.13739H14.7262H14.726Z" fill="#34495E"/>
</g>
<defs>
<clipPath id="clip0">
<rect width="20" height="20" fill="white"/>
</clipPath>
</defs>
</svg>
