<svg width="20" height="20" viewBox="0 0 20 20" fill="none" xmlns="http://www.w3.org/2000/svg">
<path d="M5.17029 5.92285H1.79871C1.42075 5.92285 1.11328 6.23032 1.11328 6.60828V19.3147C1.11328 19.6925 1.42075 20 1.79871 20H5.17029C5.5481 20 5.85556 19.6925 5.85556 19.3147V6.60828C5.85556 6.23032 5.5481 5.92285 5.17029 5.92285ZM4.68201 18.8264H2.28683V7.0964H4.68201V18.8264Z" fill="#7E7E7E"/>
<path d="M3.4845 0C2.16614 0 1.09375 1.07239 1.09375 2.39059C1.09375 3.70895 2.16614 4.78133 3.4845 4.78133C4.80255 4.78133 5.87509 3.70895 5.87509 2.39059C5.87509 1.07239 4.8027 0 3.4845 0ZM3.4845 3.60778C2.81326 3.60778 2.2673 3.06182 2.2673 2.39059C2.2673 1.71951 2.81326 1.17355 3.4845 1.17355C4.15558 1.17355 4.70154 1.71951 4.70154 2.39059C4.70154 3.06167 4.15558 3.60778 3.4845 3.60778Z" fill="#7E7E7E"/>
<path d="M16.7596 7.41266C15.9537 6.7399 14.929 6.3801 13.8756 6.39963C13.2213 6.41168 12.5819 6.56946 12.0026 6.8551V6.5777C12.0026 6.21622 11.7094 5.9231 11.348 5.9231H7.91504C7.55356 5.9231 7.26044 6.21622 7.26044 6.5777V19.3455C7.26044 19.7071 7.55356 20.0001 7.91504 20.0001H11.4157C11.7398 20.0001 12.0026 19.7373 12.0026 19.4134V11.8009C12.0026 11.1492 12.5125 10.5978 13.1638 10.5784C13.8406 10.5584 14.3976 11.103 14.3976 11.7754V19.4256C14.3976 19.7428 14.6548 20.0001 14.9721 20.0001H18.3365C18.6537 20.0001 18.911 19.7428 18.911 19.4256V12.0081C18.911 10.229 18.1268 8.55386 16.7596 7.41266ZM17.7374 18.8265H15.5713V11.7754C15.5713 10.4681 14.5076 9.40438 13.2001 9.40438C11.8927 9.40438 10.829 10.4681 10.829 11.7754V18.8265H8.43399V7.09649H10.829V7.94931H10.8298C10.8296 8.08755 10.8777 8.2264 10.9766 8.33825C11.1913 8.58087 11.5622 8.60345 11.8048 8.38861C12.383 7.87683 13.1261 7.58722 13.8972 7.57287C14.6692 7.55822 15.4184 7.82159 16.0077 8.31353C17.1071 9.23119 17.7374 10.5778 17.7374 12.0081V18.8265Z" fill="#7E7E7E"/>
</svg>
