<svg width="20" height="20" viewBox="0 0 20 20" fill="none" xmlns="http://www.w3.org/2000/svg">
<g clip-path="url(#clip0)">
<path d="M7.61013 18.27C4.27212 18.27 1.63387 17.6868 0.371665 16.6702L0.347098 16.6504L0.32482 16.6281C0.0249853 16.3281 -0.0732813 15.9346 0.0555028 15.5486L0.0672521 15.5165C0.223502 15.1258 0.606345 14.8627 1.02123 14.8603C1.87511 14.8454 2.62218 14.7437 3.30013 14.5461C2.21874 14.0431 1.46755 13.1723 1.02062 11.9119C0.870322 11.5189 1.00002 11.0831 1.3464 10.8232C1.43185 10.759 1.52843 10.7105 1.63067 10.678C1.02978 9.98431 0.585898 9.19497 0.337333 8.36016L0.329551 8.33422L0.32421 8.30767C0.239829 7.88546 0.42858 7.45135 0.774497 7.26443C0.919608 7.18111 1.07723 7.13793 1.23546 7.13427C1.06487 6.76684 0.940817 6.38964 0.86727 6.01015C0.663108 4.95852 0.831565 3.90429 1.36776 2.87676L1.49181 2.62865C1.59115 2.43014 1.78097 2.29067 1.99978 2.25512C2.21859 2.21972 2.44289 2.29205 2.5996 2.44875L2.82558 2.67504C4.61086 4.54668 6.20998 5.43475 8.97472 6.04235C9.09816 4.9811 9.557 3.99462 10.2972 3.21825C11.1781 2.29449 12.3544 1.77615 13.6094 1.75845H13.6177C14.5333 1.75845 15.6692 2.28121 16.3562 2.64986C16.9455 2.45699 17.6554 2.15838 18.3921 1.84267C18.7368 1.68093 19.1618 1.75494 19.4328 2.02593C19.6984 2.29159 19.7721 2.66619 19.6312 3.03027C19.5776 3.17934 19.5169 3.32568 19.4493 3.4688C19.5501 3.51504 19.6424 3.57775 19.7204 3.65572C19.9562 3.89147 20.0544 4.26043 19.9707 4.59582L19.9617 4.62771C19.6794 5.53744 19.1371 6.2784 18.4199 6.74349C18.3001 13.1218 13.497 18.27 7.61013 18.27ZM1.49639 16.017C2.68581 16.6899 4.95251 17.097 7.61013 17.097C10.1652 17.097 12.5764 16.0001 14.3994 14.0082C16.2373 12 17.2494 9.33321 17.2494 6.49905V6.46715C17.2494 6.2105 17.3907 5.97628 17.6181 5.85574C18.0793 5.61144 18.4529 5.19534 18.6958 4.66326C18.4452 4.70278 18.1906 4.60223 18.0345 4.39257C17.853 4.14889 17.8511 3.81976 18.0294 3.57394C18.1257 3.44118 18.213 3.30309 18.2908 3.16027C17.6547 3.42745 17.0506 3.66701 16.5261 3.82616C16.3356 3.88384 16.1232 3.86126 15.9491 3.76406C15.0154 3.24389 14.1458 2.93291 13.6215 2.93139C11.6868 2.96099 10.1138 4.61794 10.1138 6.62691C10.1138 6.83459 10.0216 7.02929 9.86126 7.16128C9.70073 7.29311 9.49199 7.34591 9.28814 7.30563C6.10027 6.67757 4.21123 5.7358 2.24682 3.76177C1.96529 4.43636 1.88839 5.11584 2.01855 5.78677C2.15053 6.46639 2.50164 7.14739 3.03402 7.75607C3.23635 7.98708 3.2632 8.31759 3.10085 8.57836C2.93911 8.83822 2.63164 8.95968 2.33608 8.88049C2.10506 8.81853 1.89266 8.73721 1.69124 8.63268C2.10155 9.52395 2.80727 10.3482 3.69442 10.9561C3.95153 11.1324 4.05895 11.4609 3.9558 11.7551C3.8525 12.0497 3.56396 12.2394 3.25207 12.2162C2.91225 12.191 2.6112 12.1265 2.3341 12.0177C2.83153 13.0307 3.62636 13.5881 4.85088 13.8011C5.14248 13.852 5.36953 14.0822 5.41591 14.3741C5.46245 14.666 5.31795 14.9553 5.05657 15.094C4.01287 15.6473 2.87212 15.9442 1.49639 16.017Z" fill="#7E7E7E"/>
</g>
<defs>
<clipPath id="clip0">
<rect width="20" height="20" fill="white"/>
</clipPath>
</defs>
</svg>
